<mxfile host="app.diagrams.net" agent="Mozilla/5.0 (Macintosh; Intel Mac OS X 10.15; rv:135.0) Gecko/20100101 Firefox/135.0" version="26.1.0">
  <diagram name="Page-1" id="DPhwujIsCaECBgjRmUG0">
    <mxGraphModel dx="1202" dy="689" grid="1" gridSize="10" guides="1" tooltips="1" connect="1" arrows="1" fold="1" page="1" pageScale="1" pageWidth="850" pageHeight="1100" math="0" shadow="0">
      <root>
        <mxCell id="0" />
        <mxCell id="1" parent="0" />
        <mxCell id="dUbe7FOEz5b91n6E3eyf-1" value="" style="verticalLabelPosition=bottom;html=1;verticalAlign=top;align=center;strokeColor=none;fillColor=#00BEF2;shape=mxgraph.azure.storage_blob;" parent="1" vertex="1">
          <mxGeometry x="180" y="65.5" width="60" height="54" as="geometry" />
        </mxCell>
        <mxCell id="dUbe7FOEz5b91n6E3eyf-2" value="" style="sketch=0;pointerEvents=1;shadow=0;dashed=0;html=1;strokeColor=none;fillColor=#505050;labelPosition=center;verticalLabelPosition=bottom;verticalAlign=top;outlineConnect=0;align=center;shape=mxgraph.office.users.csv_file;" parent="1" vertex="1">
          <mxGeometry x="80" y="71" width="59" height="43" as="geometry" />
        </mxCell>
        <mxCell id="dUbe7FOEz5b91n6E3eyf-3" value="" style="image;aspect=fixed;html=1;points=[];align=center;fontSize=12;image=img/lib/azure2/compute/Function_Apps.svg;" parent="1" vertex="1">
          <mxGeometry x="176" y="161" width="68" height="60" as="geometry" />
        </mxCell>
        <mxCell id="dUbe7FOEz5b91n6E3eyf-5" value="" style="sketch=0;pointerEvents=1;shadow=0;dashed=0;html=1;strokeColor=none;labelPosition=center;verticalLabelPosition=bottom;verticalAlign=top;align=center;fillColor=#505050;shape=mxgraph.mscae.intune.alerts" parent="1" vertex="1">
          <mxGeometry x="190" y="392" width="70" height="48" as="geometry" />
        </mxCell>
        <mxCell id="dUbe7FOEz5b91n6E3eyf-7" value="" style="image;aspect=fixed;html=1;points=[];align=center;fontSize=12;image=img/lib/azure2/compute/Function_Apps.svg;" parent="1" vertex="1">
          <mxGeometry x="423" y="560" width="68" height="60" as="geometry" />
        </mxCell>
        <mxCell id="dUbe7FOEz5b91n6E3eyf-9" value="" style="image;aspect=fixed;html=1;points=[];align=center;fontSize=12;image=img/lib/azure2/integration/Service_Bus.svg;" parent="1" vertex="1">
          <mxGeometry x="176" y="250" width="68" height="60" as="geometry" />
        </mxCell>
        <mxCell id="joMRb7aqOOjLrHgpA4AY-48" value="" style="edgeStyle=orthogonalEdgeStyle;rounded=0;orthogonalLoop=1;jettySize=auto;html=1;" parent="1" source="dUbe7FOEz5b91n6E3eyf-4" target="dUbe7FOEz5b91n6E3eyf-5" edge="1">
          <mxGeometry relative="1" as="geometry" />
        </mxCell>
        <mxCell id="joMRb7aqOOjLrHgpA4AY-52" value="" style="edgeStyle=orthogonalEdgeStyle;rounded=0;orthogonalLoop=1;jettySize=auto;html=1;" parent="1" source="dUbe7FOEz5b91n6E3eyf-10" target="dUbe7FOEz5b91n6E3eyf-4" edge="1">
          <mxGeometry relative="1" as="geometry" />
        </mxCell>
        <mxCell id="dUbe7FOEz5b91n6E3eyf-10" value="" style="image;aspect=fixed;html=1;points=[];align=center;fontSize=12;image=img/lib/azure2/compute/Function_Apps.svg;" parent="1" vertex="1">
          <mxGeometry x="300" y="250" width="68" height="60" as="geometry" />
        </mxCell>
        <mxCell id="mL_13S4-3zPjjRJxQi0q-1" value="" style="aspect=fixed;html=1;align=center;fontSize=12;image=img/lib/azure2/compute/Function_Apps.svg;verticalLabelPosition=bottom;verticalAlign=top;strokeColor=none;fillColor=#00BEF2;shape=mxgraph.azure.storage_blob;" parent="1" vertex="1">
          <mxGeometry x="423" y="480" width="68" height="60" as="geometry" />
        </mxCell>
        <mxCell id="EsXwsVHZKhoSjYva0dPV-1" value="" style="image;aspect=fixed;html=1;points=[];align=center;fontSize=12;image=img/lib/azure2/internet_of_things/Logic_Apps.svg;" parent="1" vertex="1">
          <mxGeometry x="423" y="382" width="68" height="68" as="geometry" />
        </mxCell>
        <mxCell id="joMRb7aqOOjLrHgpA4AY-2" value="" style="image;aspect=fixed;html=1;points=[];align=center;fontSize=12;image=img/lib/azure2/internet_of_things/Logic_Apps.svg;" parent="1" vertex="1">
          <mxGeometry x="450" y="670" width="68" height="68" as="geometry" />
        </mxCell>
        <mxCell id="joMRb7aqOOjLrHgpA4AY-3" value="" style="image;aspect=fixed;html=1;points=[];align=center;fontSize=12;image=img/lib/azure2/internet_of_things/Logic_Apps.svg;" parent="1" vertex="1">
          <mxGeometry x="450" y="780" width="68" height="68" as="geometry" />
        </mxCell>
        <mxCell id="joMRb7aqOOjLrHgpA4AY-4" value="" style="image;aspect=fixed;html=1;points=[];align=center;fontSize=12;image=img/lib/azure2/other/Azure_Communication_Services.svg;" parent="1" vertex="1">
          <mxGeometry x="560" y="679" width="68" height="50" as="geometry" />
        </mxCell>
        <mxCell id="joMRb7aqOOjLrHgpA4AY-6" value="" style="image;aspect=fixed;html=1;points=[];align=center;fontSize=12;image=img/lib/azure2/other/Azure_Communication_Services.svg;" parent="1" vertex="1">
          <mxGeometry x="570" y="789" width="68" height="50" as="geometry" />
        </mxCell>
        <mxCell id="joMRb7aqOOjLrHgpA4AY-7" value="" style="shape=table;startSize=0;container=1;collapsible=0;childLayout=tableLayout;fontSize=16;fillColor=#bac8d3;strokeColor=#23445d;" parent="1" vertex="1">
          <mxGeometry x="190" y="560" width="120" height="46" as="geometry" />
        </mxCell>
        <mxCell id="joMRb7aqOOjLrHgpA4AY-8" value="" style="shape=tableRow;horizontal=0;startSize=0;swimlaneHead=0;swimlaneBody=0;strokeColor=inherit;top=0;left=0;bottom=0;right=0;collapsible=0;dropTarget=0;fillColor=none;points=[[0,0.5],[1,0.5]];portConstraint=eastwest;fontSize=16;" parent="joMRb7aqOOjLrHgpA4AY-7" vertex="1">
          <mxGeometry width="120" height="16" as="geometry" />
        </mxCell>
        <mxCell id="joMRb7aqOOjLrHgpA4AY-9" value="" style="shape=partialRectangle;html=1;whiteSpace=wrap;connectable=0;strokeColor=inherit;overflow=hidden;fillColor=none;top=0;left=0;bottom=0;right=0;pointerEvents=1;fontSize=16;" parent="joMRb7aqOOjLrHgpA4AY-8" vertex="1">
          <mxGeometry width="41" height="16" as="geometry">
            <mxRectangle width="41" height="16" as="alternateBounds" />
          </mxGeometry>
        </mxCell>
        <mxCell id="joMRb7aqOOjLrHgpA4AY-10" value="" style="shape=partialRectangle;html=1;whiteSpace=wrap;connectable=0;strokeColor=inherit;overflow=hidden;fillColor=none;top=0;left=0;bottom=0;right=0;pointerEvents=1;fontSize=16;" parent="joMRb7aqOOjLrHgpA4AY-8" vertex="1">
          <mxGeometry x="41" width="39" height="16" as="geometry">
            <mxRectangle width="39" height="16" as="alternateBounds" />
          </mxGeometry>
        </mxCell>
        <mxCell id="joMRb7aqOOjLrHgpA4AY-11" value="" style="shape=partialRectangle;html=1;whiteSpace=wrap;connectable=0;strokeColor=inherit;overflow=hidden;fillColor=none;top=0;left=0;bottom=0;right=0;pointerEvents=1;fontSize=16;" parent="joMRb7aqOOjLrHgpA4AY-8" vertex="1">
          <mxGeometry x="80" width="40" height="16" as="geometry">
            <mxRectangle width="40" height="16" as="alternateBounds" />
          </mxGeometry>
        </mxCell>
        <mxCell id="joMRb7aqOOjLrHgpA4AY-12" value="" style="shape=tableRow;horizontal=0;startSize=0;swimlaneHead=0;swimlaneBody=0;strokeColor=inherit;top=0;left=0;bottom=0;right=0;collapsible=0;dropTarget=0;fillColor=none;points=[[0,0.5],[1,0.5]];portConstraint=eastwest;fontSize=16;" parent="joMRb7aqOOjLrHgpA4AY-7" vertex="1">
          <mxGeometry y="16" width="120" height="14" as="geometry" />
        </mxCell>
        <mxCell id="joMRb7aqOOjLrHgpA4AY-13" value="" style="shape=partialRectangle;html=1;whiteSpace=wrap;connectable=0;strokeColor=inherit;overflow=hidden;fillColor=none;top=0;left=0;bottom=0;right=0;pointerEvents=1;fontSize=16;" parent="joMRb7aqOOjLrHgpA4AY-12" vertex="1">
          <mxGeometry width="41" height="14" as="geometry">
            <mxRectangle width="41" height="14" as="alternateBounds" />
          </mxGeometry>
        </mxCell>
        <mxCell id="joMRb7aqOOjLrHgpA4AY-14" value="" style="shape=partialRectangle;html=1;whiteSpace=wrap;connectable=0;strokeColor=inherit;overflow=hidden;fillColor=none;top=0;left=0;bottom=0;right=0;pointerEvents=1;fontSize=16;" parent="joMRb7aqOOjLrHgpA4AY-12" vertex="1">
          <mxGeometry x="41" width="39" height="14" as="geometry">
            <mxRectangle width="39" height="14" as="alternateBounds" />
          </mxGeometry>
        </mxCell>
        <mxCell id="joMRb7aqOOjLrHgpA4AY-15" value="" style="shape=partialRectangle;html=1;whiteSpace=wrap;connectable=0;strokeColor=inherit;overflow=hidden;fillColor=none;top=0;left=0;bottom=0;right=0;pointerEvents=1;fontSize=16;" parent="joMRb7aqOOjLrHgpA4AY-12" vertex="1">
          <mxGeometry x="80" width="40" height="14" as="geometry">
            <mxRectangle width="40" height="14" as="alternateBounds" />
          </mxGeometry>
        </mxCell>
        <mxCell id="joMRb7aqOOjLrHgpA4AY-16" value="" style="shape=tableRow;horizontal=0;startSize=0;swimlaneHead=0;swimlaneBody=0;strokeColor=inherit;top=0;left=0;bottom=0;right=0;collapsible=0;dropTarget=0;fillColor=none;points=[[0,0.5],[1,0.5]];portConstraint=eastwest;fontSize=16;" parent="joMRb7aqOOjLrHgpA4AY-7" vertex="1">
          <mxGeometry y="30" width="120" height="16" as="geometry" />
        </mxCell>
        <mxCell id="joMRb7aqOOjLrHgpA4AY-17" value="" style="shape=partialRectangle;html=1;whiteSpace=wrap;connectable=0;strokeColor=inherit;overflow=hidden;fillColor=none;top=0;left=0;bottom=0;right=0;pointerEvents=1;fontSize=16;" parent="joMRb7aqOOjLrHgpA4AY-16" vertex="1">
          <mxGeometry width="41" height="16" as="geometry">
            <mxRectangle width="41" height="16" as="alternateBounds" />
          </mxGeometry>
        </mxCell>
        <mxCell id="joMRb7aqOOjLrHgpA4AY-18" value="" style="shape=partialRectangle;html=1;whiteSpace=wrap;connectable=0;strokeColor=inherit;overflow=hidden;fillColor=none;top=0;left=0;bottom=0;right=0;pointerEvents=1;fontSize=16;" parent="joMRb7aqOOjLrHgpA4AY-16" vertex="1">
          <mxGeometry x="41" width="39" height="16" as="geometry">
            <mxRectangle width="39" height="16" as="alternateBounds" />
          </mxGeometry>
        </mxCell>
        <mxCell id="joMRb7aqOOjLrHgpA4AY-19" value="" style="shape=partialRectangle;html=1;whiteSpace=wrap;connectable=0;strokeColor=inherit;overflow=hidden;fillColor=none;top=0;left=0;bottom=0;right=0;pointerEvents=1;fontSize=16;" parent="joMRb7aqOOjLrHgpA4AY-16" vertex="1">
          <mxGeometry x="80" width="40" height="16" as="geometry">
            <mxRectangle width="40" height="16" as="alternateBounds" />
          </mxGeometry>
        </mxCell>
        <mxCell id="joMRb7aqOOjLrHgpA4AY-36" value="" style="endArrow=classic;html=1;rounded=0;entryX=0.029;entryY=0.529;entryDx=0;entryDy=0;entryPerimeter=0;" parent="1" source="dUbe7FOEz5b91n6E3eyf-5" target="EsXwsVHZKhoSjYva0dPV-1" edge="1">
          <mxGeometry width="50" height="50" relative="1" as="geometry">
            <mxPoint x="358" y="420" as="sourcePoint" />
            <mxPoint x="420" y="416" as="targetPoint" />
          </mxGeometry>
        </mxCell>
        <mxCell id="joMRb7aqOOjLrHgpA4AY-38" value="" style="edgeStyle=entityRelationEdgeStyle;fontSize=12;html=1;endArrow=ERoneToMany;rounded=0;" parent="1" edge="1">
          <mxGeometry width="100" height="100" relative="1" as="geometry">
            <mxPoint x="491" y="430" as="sourcePoint" />
            <mxPoint x="610" y="430" as="targetPoint" />
          </mxGeometry>
        </mxCell>
        <mxCell id="joMRb7aqOOjLrHgpA4AY-39" value="" style="curved=1;endArrow=classic;html=1;rounded=0;entryX=1;entryY=0.5;entryDx=0;entryDy=0;entryPerimeter=0;" parent="1" target="dUbe7FOEz5b91n6E3eyf-1" edge="1">
          <mxGeometry width="50" height="50" relative="1" as="geometry">
            <mxPoint x="608" y="430" as="sourcePoint" />
            <mxPoint x="658" y="380" as="targetPoint" />
            <Array as="points">
              <mxPoint x="658" y="430" />
              <mxPoint x="608" y="380" />
            </Array>
          </mxGeometry>
        </mxCell>
        <mxCell id="joMRb7aqOOjLrHgpA4AY-45" value="" style="endArrow=classic;html=1;rounded=0;entryX=0.515;entryY=0.083;entryDx=0;entryDy=0;entryPerimeter=0;" parent="1" source="dUbe7FOEz5b91n6E3eyf-3" target="dUbe7FOEz5b91n6E3eyf-9" edge="1">
          <mxGeometry width="50" height="50" relative="1" as="geometry">
            <mxPoint x="209.5" y="221" as="sourcePoint" />
            <mxPoint x="209.5" y="241" as="targetPoint" />
          </mxGeometry>
        </mxCell>
        <mxCell id="joMRb7aqOOjLrHgpA4AY-46" value="" style="endArrow=classic;html=1;rounded=0;exitX=0.5;exitY=0.602;exitDx=0;exitDy=0;exitPerimeter=0;" parent="1" source="dUbe7FOEz5b91n6E3eyf-1" target="dUbe7FOEz5b91n6E3eyf-3" edge="1">
          <mxGeometry width="50" height="50" relative="1" as="geometry">
            <mxPoint x="209.5" y="130" as="sourcePoint" />
            <mxPoint x="209.5" y="150" as="targetPoint" />
          </mxGeometry>
        </mxCell>
        <mxCell id="joMRb7aqOOjLrHgpA4AY-47" value="" style="endArrow=classic;html=1;rounded=0;" parent="1" source="dUbe7FOEz5b91n6E3eyf-9" target="dUbe7FOEz5b91n6E3eyf-10" edge="1">
          <mxGeometry width="50" height="50" relative="1" as="geometry">
            <mxPoint x="250" y="279.5" as="sourcePoint" />
            <mxPoint x="290" y="279.5" as="targetPoint" />
          </mxGeometry>
        </mxCell>
        <mxCell id="joMRb7aqOOjLrHgpA4AY-50" value="" style="edgeStyle=orthogonalEdgeStyle;rounded=0;orthogonalLoop=1;jettySize=auto;html=1;" parent="1" source="dUbe7FOEz5b91n6E3eyf-4" target="dUbe7FOEz5b91n6E3eyf-5" edge="1">
          <mxGeometry relative="1" as="geometry" />
        </mxCell>
        <mxCell id="dUbe7FOEz5b91n6E3eyf-4" value="" style="image;aspect=fixed;html=1;points=[];align=center;fontSize=12;image=img/lib/azure2/databases/Azure_Purview_Accounts.svg;" parent="1" vertex="1">
          <mxGeometry x="300" y="330" width="68" height="42" as="geometry" />
        </mxCell>
        <mxCell id="joMRb7aqOOjLrHgpA4AY-51" value="" style="endArrow=classic;html=1;rounded=0;" parent="1" source="dUbe7FOEz5b91n6E3eyf-10" target="dUbe7FOEz5b91n6E3eyf-4" edge="1">
          <mxGeometry width="50" height="50" relative="1" as="geometry">
            <mxPoint x="333.5" y="310" as="sourcePoint" />
            <mxPoint x="333.5" y="330" as="targetPoint" />
          </mxGeometry>
        </mxCell>
        <mxCell id="joMRb7aqOOjLrHgpA4AY-56" value="" style="endArrow=classic;html=1;rounded=0;" parent="1" source="dUbe7FOEz5b91n6E3eyf-7" edge="1">
          <mxGeometry width="50" height="50" relative="1" as="geometry">
            <mxPoint x="458.5" y="620" as="sourcePoint" />
            <mxPoint x="338" y="675.5555555555557" as="targetPoint" />
          </mxGeometry>
        </mxCell>
        <mxCell id="joMRb7aqOOjLrHgpA4AY-57" value="" style="endArrow=classic;html=1;rounded=0;" parent="1" source="EsXwsVHZKhoSjYva0dPV-1" edge="1">
          <mxGeometry width="50" height="50" relative="1" as="geometry">
            <mxPoint x="456.5" y="450" as="sourcePoint" />
            <mxPoint x="456.5" y="470" as="targetPoint" />
          </mxGeometry>
        </mxCell>
        <mxCell id="joMRb7aqOOjLrHgpA4AY-58" value="" style="endArrow=classic;html=1;rounded=0;entryX=0.2;entryY=0.509;entryDx=0;entryDy=0;entryPerimeter=0;" parent="1" source="dUbe7FOEz5b91n6E3eyf-2" target="dUbe7FOEz5b91n6E3eyf-1" edge="1">
          <mxGeometry width="50" height="50" relative="1" as="geometry">
            <mxPoint x="130" y="92" as="sourcePoint" />
            <mxPoint x="180" y="92" as="targetPoint" />
          </mxGeometry>
        </mxCell>
        <mxCell id="joMRb7aqOOjLrHgpA4AY-60" value="" style="endArrow=classic;html=1;rounded=0;entryX=0.912;entryY=0.633;entryDx=0;entryDy=0;entryPerimeter=0;" parent="1" edge="1">
          <mxGeometry width="50" height="50" relative="1" as="geometry">
            <mxPoint x="600" y="430" as="sourcePoint" />
            <mxPoint x="490.9960000000001" y="507.98" as="targetPoint" />
          </mxGeometry>
        </mxCell>
        <mxCell id="joMRb7aqOOjLrHgpA4AY-61" value="" style="endArrow=classic;html=1;rounded=0;exitX=1;exitY=0.617;exitDx=0;exitDy=0;exitPerimeter=0;" parent="1" source="dUbe7FOEz5b91n6E3eyf-7" edge="1">
          <mxGeometry width="50" height="50" relative="1" as="geometry">
            <mxPoint x="740" y="490" as="sourcePoint" />
            <mxPoint x="800" y="80" as="targetPoint" />
            <Array as="points">
              <mxPoint x="800" y="600" />
            </Array>
          </mxGeometry>
        </mxCell>
        <mxCell id="joMRb7aqOOjLrHgpA4AY-62" value="" style="endArrow=classic;html=1;rounded=0;entryX=1;entryY=0.5;entryDx=0;entryDy=0;entryPerimeter=0;" parent="1" target="dUbe7FOEz5b91n6E3eyf-1" edge="1">
          <mxGeometry width="50" height="50" relative="1" as="geometry">
            <mxPoint x="800" y="90" as="sourcePoint" />
            <mxPoint x="550" y="80" as="targetPoint" />
          </mxGeometry>
        </mxCell>
        <mxCell id="joMRb7aqOOjLrHgpA4AY-64" value="" style="endArrow=classic;html=1;rounded=0;" parent="1" edge="1">
          <mxGeometry width="50" height="50" relative="1" as="geometry">
            <mxPoint x="458.5" y="540" as="sourcePoint" />
            <mxPoint x="458.5" y="560" as="targetPoint" />
          </mxGeometry>
        </mxCell>
        <mxCell id="joMRb7aqOOjLrHgpA4AY-66" value="" style="endArrow=classic;html=1;rounded=0;" parent="1" source="joMRb7aqOOjLrHgpA4AY-3" target="joMRb7aqOOjLrHgpA4AY-6" edge="1">
          <mxGeometry width="50" height="50" relative="1" as="geometry">
            <mxPoint x="540" y="810" as="sourcePoint" />
            <mxPoint x="570" y="810" as="targetPoint" />
          </mxGeometry>
        </mxCell>
        <mxCell id="joMRb7aqOOjLrHgpA4AY-67" value="" style="endArrow=classic;html=1;rounded=0;" parent="1" edge="1">
          <mxGeometry width="50" height="50" relative="1" as="geometry">
            <mxPoint x="310" y="700" as="sourcePoint" />
            <mxPoint x="440" y="700" as="targetPoint" />
          </mxGeometry>
        </mxCell>
        <mxCell id="joMRb7aqOOjLrHgpA4AY-71" value="" style="endArrow=classic;html=1;rounded=0;exitX=0.971;exitY=0.817;exitDx=0;exitDy=0;exitPerimeter=0;" parent="1" target="joMRb7aqOOjLrHgpA4AY-3" edge="1">
          <mxGeometry width="50" height="50" relative="1" as="geometry">
            <mxPoint x="336.028" y="719.02" as="sourcePoint" />
            <mxPoint x="368" y="770" as="targetPoint" />
          </mxGeometry>
        </mxCell>
        <mxCell id="joMRb7aqOOjLrHgpA4AY-72" value="" style="endArrow=classic;html=1;rounded=0;exitX=0.029;exitY=0.417;exitDx=0;exitDy=0;exitPerimeter=0;" parent="1" source="dUbe7FOEz5b91n6E3eyf-7" edge="1">
          <mxGeometry width="50" height="50" relative="1" as="geometry">
            <mxPoint x="330" y="590" as="sourcePoint" />
            <mxPoint x="315" y="586" as="targetPoint" />
          </mxGeometry>
        </mxCell>
        <mxCell id="joMRb7aqOOjLrHgpA4AY-74" value="" style="endArrow=classic;html=1;rounded=0;exitX=0.735;exitY=0.294;exitDx=0;exitDy=0;exitPerimeter=0;" parent="1" source="joMRb7aqOOjLrHgpA4AY-2" edge="1">
          <mxGeometry width="50" height="50" relative="1" as="geometry">
            <mxPoint x="508" y="688.5" as="sourcePoint" />
            <mxPoint x="560" y="690" as="targetPoint" />
          </mxGeometry>
        </mxCell>
        <mxCell id="joMRb7aqOOjLrHgpA4AY-84" value="" style="image;aspect=fixed;html=1;points=[];align=center;fontSize=12;image=img/lib/azure2/other/Log_Analytics_Query_Pack.svg;" parent="1" vertex="1">
          <mxGeometry x="80" y="690" width="68" height="68" as="geometry" />
        </mxCell>
        <mxCell id="joMRb7aqOOjLrHgpA4AY-85" value="" style="endArrow=classic;html=1;rounded=0;entryX=0;entryY=0.5;entryDx=0;entryDy=0;" parent="1" source="joMRb7aqOOjLrHgpA4AY-84" target="joMRb7aqOOjLrHgpA4AY-12" edge="1">
          <mxGeometry width="50" height="50" relative="1" as="geometry">
            <mxPoint x="120" y="690" as="sourcePoint" />
            <mxPoint x="170" y="640" as="targetPoint" />
            <Array as="points">
              <mxPoint x="114" y="583" />
            </Array>
          </mxGeometry>
        </mxCell>
        <mxCell id="joMRb7aqOOjLrHgpA4AY-86" value="" style="image;aspect=fixed;html=1;points=[];align=center;fontSize=12;image=img/lib/azure2/integration/Service_Bus.svg;" parent="1" vertex="1">
          <mxGeometry x="270" y="669" width="68" height="60" as="geometry" />
        </mxCell>
        <mxCell id="LVgYDh2aszR5Sw6oKSvs-1" value="" style="image;aspect=fixed;html=1;points=[];align=center;fontSize=12;image=img/lib/azure2/compute/Function_Apps.svg;" vertex="1" parent="1">
          <mxGeometry x="770" y="59.5" width="68" height="60" as="geometry" />
        </mxCell>
      </root>
    </mxGraphModel>
  </diagram>
</mxfile>
